# xmcd
#
# Track frame offsets: 
#        150
#        15705
#        46052
#        65719
#        95671
#        115963
#        140330
#        150750
#        175399
#
# Disc length: 2856 seconds
#
# Revision: 1
# Processed by: cddbd v1.5.2PL0 Copyright (c) Steve Scherf et al.
# Submitted via: ExactAudioCopy v1.3
#
DISCID=700b2609
DTITLE=The Hoodangers - Lille Fisk
DYEAR=2008
DGENRE=Jazz
TTITLE0=C-Hunting
TTITLE1=The Goose and The Fly
TTITLE2=Flyin' With Floyd
TTITLE3=Don't Think Twice, It's Alright
TTITLE4=Ting, Tang, Tongo
TTITLE5=Burnin' and Lootin'
TTITLE6=Dead
TTITLE7=Kansas City Stomp
TTITLE8=Stor Fisk, Lille Fisk
EXTD=YEAR: 2008
EXTT0=
EXTT1=
EXTT2=
EXTT3=
EXTT4=
EXTT5=
EXTT6=
EXTT7=
EXTT8=
PLAYORDER=
